<?xml version="1.0" standalone="no"?>
<!DOCTYPE svg PUBLIC "-//W3C//DTD SVG 20010904//EN"
 "http://www.w3.org/TR/2001/REC-SVG-20010904/DTD/svg10.dtd">
<svg version="1.0" xmlns="http://www.w3.org/2000/svg"
 width="600.000000pt" height="600.000000pt" viewBox="0 0 600.000000 600.000000"
 preserveAspectRatio="xMidYMid meet">
<metadata>
Created by potrace 1.14, written by Peter Selinger 2001-2017
</metadata>
<g transform="translate(0.000000,600.000000) scale(0.100000,-0.100000)"
fill="#000000" stroke="none">
<path d="M3049 5981 c6 -10 7 -21 4 -25 -3 -3 -1 -6 5 -6 7 0 12 -9 12 -20 0
-11 5 -20 10 -20 6 0 10 -9 10 -19 0 -11 7 -27 16 -35 12 -12 12 -16 2 -16
-10 0 -9 -3 2 -10 8 -5 15 -14 15 -20 0 -6 5 -14 10 -18 10 -7 17 -27 18 -49
0 -7 3 -10 6 -8 4 2 16 -12 29 -31 l22 -34 -24 0 c-13 0 -29 7 -36 15 -7 9
-19 14 -27 11 -8 -3 -11 -1 -8 4 3 6 -3 10 -14 10 -12 0 -21 5 -21 11 0 5 -4
8 -9 4 -5 -3 -12 -1 -16 5 -4 6 -11 8 -16 5 -5 -4 -9 -1 -9 5 0 7 -7 10 -15 7
-8 -4 -17 -1 -21 5 -4 7 -9 6 -15 -3 -7 -11 -9 -11 -9 1 0 10 -10 17 -27 18
-15 1 -29 5 -32 10 -5 6 -24 10 -73 15 -10 1 -18 6 -18 11 0 5 -3 6 -7 3 -3
-4 -13 -1 -21 6 -13 10 -14 9 -7 -3 8 -13 6 -13 -8 -1 -9 7 -24 11 -32 7 -8
-3 -15 -1 -15 5 0 6 -4 8 -9 4 -5 -3 -13 0 -17 6 -5 8 -8 8 -14 -1 -5 -8 -12
-7 -24 5 -9 9 -16 12 -16 7 0 -5 -7 -9 -15 -9 -8 0 -12 4 -9 8 2 4 0 10 -6 14
-5 3 -10 1 -10 -6 0 -8 -4 -8 -15 1 -12 10 -15 10 -15 -1 0 -9 -3 -10 -8 -3
-9 14 -38 24 -46 16 -12 -11 -36 -10 -36 1 0 7 -5 5 -10 -3 -5 -8 -10 -10 -10
-4 0 7 -19 11 -51 10 -28 0 -53 2 -56 7 -2 4 -9 4 -15 1 -6 -4 -31 -6 -55 -5
-27 1 -42 -3 -38 -9 3 -6 0 -7 -9 -4 -9 3 -13 11 -10 18 3 6 0 4 -8 -4 -11
-13 -66 -21 -161 -21 -11 0 -15 -5 -10 -12 4 -7 0 -6 -10 2 -14 11 -17 11 -17
0 0 -12 -2 -12 -9 0 -5 7 -10 9 -12 3 -3 -8 -53 -19 -111 -25 -10 -1 -18 -5
-18 -9 0 -4 -3 -7 -7 -7 -5 1 -10 1 -13 -1 -3 -1 -16 -3 -29 -6 -14 -2 -30 -9
-38 -15 -10 -9 -13 -8 -13 2 0 11 -2 11 -10 -1 -5 -8 -10 -10 -10 -5 0 6 -5 3
-10 -5 -5 -8 -15 -15 -22 -16 -7 0 -23 -2 -35 -2 -12 -1 -29 -9 -37 -18 -9 -8
-16 -12 -16 -8 0 3 -8 0 -17 -7 -14 -12 -16 -12 -9 1 6 11 4 11 -6 -1 -7 -9
-23 -14 -37 -12 -18 2 -22 0 -17 -12 3 -9 2 -13 -4 -10 -5 3 -30 -3 -54 -14
-25 -10 -47 -17 -50 -13 -3 3 -6 0 -6 -6 0 -7 -7 -12 -15 -12 -8 0 -15 -4 -15
-8 0 -4 -17 -14 -37 -22 -21 -7 -43 -20 -50 -29 -10 -13 -12 -14 -13 -1 0 10
-5 7 -16 -8 -8 -12 -19 -20 -24 -17 -5 3 -18 -3 -30 -15 -11 -11 -20 -17 -20
-12 -1 4 -10 -4 -20 -17 -11 -13 -20 -20 -20 -17 0 7 -17 -5 -56 -41 -13 -12
-24 -20 -24 -18 0 2 -11 -7 -25 -21 -14 -14 -25 -29 -25 -35 0 -6 -4 -7 -10
-4 -5 3 -10 1 -10 -4 0 -6 -7 -11 -16 -11 -8 0 -12 -5 -9 -10 3 -6 -1 -13 -9
-16 -9 -3 -13 -10 -10 -15 3 -5 -2 -9 -10 -9 -9 0 -22 -12 -30 -27 -18 -34
-52 -64 -62 -55 -5 4 -3 0 4 -9 10 -14 10 -18 -3 -23 -9 -3 -13 -10 -10 -16 6
-10 62 22 76 43 4 6 14 7 23 4 9 -4 16 -1 16 6 0 7 14 13 31 14 17 1 38 10 46
20 8 10 12 12 8 6 -3 -7 -1 -13 4 -13 6 0 11 5 11 11 0 6 7 9 15 5 8 -3 15 -2
15 3 0 10 48 25 69 22 7 -1 10 2 6 8 -3 7 0 8 9 5 10 -4 16 -1 16 7 0 11 3 11
10 -1 7 -12 10 -12 10 -1 0 7 6 11 15 7 8 -3 15 -1 15 3 0 5 15 7 33 5 24 -4
28 -2 17 5 -9 7 -10 11 -3 11 6 0 15 -4 18 -10 3 -5 11 -10 16 -10 6 0 7 5 4
10 -3 6 3 10 14 10 11 0 23 -5 26 -10 5 -8 11 -7 21 1 11 9 14 9 14 -1 0 -10
3 -10 15 0 10 9 15 9 15 1 0 -6 9 -11 20 -11 14 0 18 -5 13 -17 -4 -9 -2 -14
3 -10 5 3 16 -8 23 -24 7 -16 20 -29 29 -29 15 0 15 -2 2 -10 -13 -8 -12 -10
3 -10 9 0 17 -7 17 -15 0 -8 5 -15 11 -15 5 0 7 -5 4 -10 -3 -6 1 -13 9 -16
15 -6 32 -41 28 -56 -1 -5 1 -7 6 -5 4 1 8 -3 10 -8 2 -6 10 -14 18 -18 8 -4
14 -15 14 -22 0 -8 3 -15 8 -15 16 0 30 -37 20 -51 -8 -11 -8 -10 -4 5 6 16 4
17 -9 6 -12 -10 -15 -10 -15 4 0 9 -7 16 -16 16 -8 0 -12 5 -9 10 3 6 1 10 -5
10 -17 0 -40 26 -32 35 4 5 2 5 -4 2 -7 -4 -17 0 -24 8 -7 8 -16 15 -20 15
-12 0 -90 79 -90 91 0 6 -4 7 -10 4 -5 -3 -10 1 -10 9 0 9 -7 16 -16 16 -8 0
-13 4 -9 9 3 6 -3 14 -13 20 -10 5 -24 21 -32 35 -16 30 -30 29 -41 -3 -6 -15
-5 -20 2 -15 8 4 8 0 0 -14 -14 -27 -14 -35 1 -26 7 5 8 3 2 -7 -12 -20 -14
-72 -2 -86 7 -9 6 -15 -5 -19 -12 -4 -13 -12 -7 -35 6 -20 5 -29 -3 -29 -7 0
-6 -4 3 -10 10 -6 11 -10 3 -10 -7 0 -13 -5 -13 -11 0 -5 4 -8 8 -5 4 2 8 -4
8 -15 0 -10 -3 -19 -7 -19 -13 0 -4 -35 11 -42 12 -5 11 -7 -4 -7 -18 -1 -18
-2 -2 -20 13 -14 14 -21 5 -27 -8 -5 -10 -3 -4 6 5 8 4 11 -3 6 -6 -4 -9 -13
-6 -21 4 -8 11 -12 16 -9 6 4 5 -3 -1 -15 -7 -11 -8 -21 -3 -21 5 0 8 -11 7
-25 -2 -14 2 -25 8 -25 8 0 7 -3 -1 -9 -11 -6 -10 -11 3 -25 12 -12 13 -16 3
-16 -8 0 -9 -3 -3 -8 6 -4 10 -14 10 -22 -1 -8 6 -24 14 -34 9 -11 10 -16 4
-12 -18 10 -16 -5 4 -33 12 -18 13 -22 2 -17 -8 4 -6 1 3 -7 14 -11 15 -16 5
-26 -9 -10 -9 -12 2 -9 7 2 15 -6 17 -17 1 -11 11 -25 20 -32 16 -12 17 -13 1
-13 -9 0 -17 -5 -17 -11 0 -5 4 -8 9 -4 5 3 12 1 15 -4 11 -18 -20 -5 -42 17
-12 12 -30 22 -39 22 -15 0 -16 2 -3 10 13 8 12 10 -2 10 -10 0 -18 6 -18 13
0 8 -4 7 -10 -3 -5 -8 -10 -10 -10 -3 0 6 -16 20 -36 32 -19 12 -32 15 -29 9
4 -7 -1 -4 -9 6 -9 11 -16 16 -16 11 0 -5 -5 -4 -12 3 -7 7 -20 12 -29 12 -10
0 -24 8 -31 18 -14 19 -49 23 -55 7 -2 -6 12 -26 32 -45 19 -19 35 -40 35 -45
0 -6 9 -17 19 -25 11 -7 18 -17 15 -21 -2 -4 6 -15 18 -24 13 -8 22 -18 21
-20 -5 -11 10 -34 18 -29 5 3 9 2 8 -3 -3 -20 2 -44 9 -39 4 2 15 -9 25 -25
10 -18 12 -27 4 -24 -6 4 -2 -3 11 -14 13 -11 21 -25 17 -31 -3 -5 -2 -10 3
-10 4 0 14 -16 22 -35 8 -19 18 -35 22 -35 5 0 7 -4 3 -9 -3 -5 -1 -12 5 -16
6 -4 8 -10 5 -15 -3 -4 2 -11 11 -14 8 -3 13 -10 10 -15 -8 -13 4 -42 15 -36
4 3 6 -4 4 -15 -2 -11 0 -20 6 -20 5 0 8 -3 8 -7 -3 -20 2 -34 11 -28 6 4 10
-7 10 -24 0 -17 5 -31 10 -31 6 0 10 -11 10 -24 0 -19 -6 -25 -30 -28 -17 -3
-33 -1 -36 3 -2 5 -11 6 -19 2 -9 -3 -23 1 -32 8 -14 12 -16 12 -9 0 6 -9 5
-12 -5 -9 -8 3 -13 11 -11 17 1 6 -2 11 -8 11 -5 0 -10 -7 -10 -15 0 -12 -4
-11 -20 5 -11 11 -27 20 -35 20 -8 0 -15 5 -15 10 0 6 -7 10 -15 10 -8 0 -15
5 -15 11 0 5 -4 8 -9 4 -6 -3 -15 3 -20 13 -6 11 -22 27 -37 37 -14 9 -23 12
-20 6 4 -6 3 -11 -3 -11 -6 0 -2 -13 7 -30 9 -16 20 -30 24 -30 4 0 4 -7 1
-17 -4 -11 -3 -14 5 -9 8 5 12 0 12 -13 0 -12 5 -21 10 -21 6 0 10 -6 10 -13
0 -8 9 -22 20 -32 11 -10 17 -22 14 -26 -3 -5 2 -9 10 -9 9 0 16 -5 16 -11 0
-7 13 -24 29 -40 16 -15 27 -30 23 -33 -3 -3 2 -6 11 -6 9 0 19 -5 23 -12 5
-7 3 -8 -6 -3 -9 5 -11 4 -6 -3 4 -7 16 -12 27 -12 11 0 19 -7 19 -16 0 -8 4
-13 8 -10 5 3 18 -3 29 -14 12 -10 24 -16 27 -13 3 4 13 -2 22 -13 8 -10 12
-12 8 -4 -6 13 -5 13 12 -1 10 -8 26 -15 34 -14 17 1 40 -19 40 -34 0 -6 -6
-11 -12 -11 -9 0 -8 -4 2 -10 13 -8 12 -10 -3 -10 -10 0 -15 -4 -12 -10 8 -12
-25 -61 -36 -54 -8 5 -13 -10 -10 -29 1 -5 -2 -6 -7 -3 -9 5 -18 -4 -67 -69
-50 -66 -75 -106 -79 -123 -9 -39 -19 -62 -27 -62 -4 0 -6 -9 -4 -20 2 -11 -1
-20 -7 -20 -6 0 -8 -3 -5 -6 3 -4 2 -16 -4 -27 -9 -15 -8 -18 3 -11 11 6 11 5
-1 -9 -7 -9 -10 -17 -5 -17 4 0 3 -5 -3 -11 -6 -6 -9 -18 -6 -25 3 -8 -1 -14
-8 -14 -11 0 -11 -3 1 -10 11 -7 11 -10 2 -10 -7 0 -11 -4 -7 -9 3 -5 1 -12
-4 -15 -5 -3 -7 -15 -4 -26 3 -12 -2 -30 -13 -43 -16 -19 -17 -20 -1 -8 16 12
17 12 10 -5 -3 -10 -11 -22 -17 -26 -8 -5 -7 -8 1 -8 14 0 6 -28 -15 -49 -9
-9 -10 -17 -3 -24 6 -6 5 -15 -5 -24 -8 -8 -12 -19 -9 -24 4 -5 1 -9 -4 -9 -6
0 -11 -7 -11 -15 0 -8 -5 -15 -12 -15 -6 0 -8 -3 -5 -6 4 -4 -3 -20 -14 -35
-11 -16 -17 -33 -14 -39 3 -5 -1 -10 -10 -10 -9 0 -14 -4 -11 -9 3 -5 -1 -14
-10 -21 -8 -7 -13 -19 -10 -26 3 -8 0 -13 -7 -11 -7 1 -11 -4 -10 -10 2 -7 -2
-13 -7 -13 -6 0 -10 -7 -10 -16 0 -8 -4 -13 -9 -9 -5 3 -15 -11 -21 -30 -6
-19 -16 -33 -21 -30 -8 5 -14 -10 -6 -18 1 -1 -14 -17 -33 -36 -19 -18 -34
-37 -33 -42 2 -5 -4 -9 -13 -9 -8 0 -12 -5 -9 -10 3 -6 -1 -13 -9 -16 -8 -3
-18 -14 -21 -25 -4 -11 -11 -17 -16 -14 -5 4 -9 0 -9 -7 -1 -7 -14 -24 -30
-38 -17 -13 -30 -30 -30 -38 0 -7 -4 -10 -10 -7 -6 3 -10 -1 -10 -10 0 -9 -4
-13 -10 -10 -6 3 -10 2 -10 -3 0 -5 -9 -19 -20 -32 -11 -12 -17 -27 -14 -32 3
-4 2 -7 -3 -6 -19 6 -70 -61 -64 -85 1 -5 -2 -6 -7 -3 -11 7 -52 -48 -52 -69
0 -9 -4 -14 -9 -10 -5 3 -12 1 -16 -5 -3 -5 0 -10 7 -10 9 0 10 -3 2 -8 -15
-10 -95 -164 -80 -155 6 4 5 -1 -3 -10 -7 -9 -10 -17 -5 -17 4 0 -1 -7 -12
-15 -14 -11 -15 -14 -4 -15 13 0 13 -1 0 -10 -8 -5 -11 -10 -6 -10 5 0 1 -10
-10 -22 -12 -13 -13 -18 -4 -13 13 8 13 7 1 -8 -7 -9 -10 -17 -6 -17 4 0 2 -7
-5 -15 -7 -8 -10 -15 -6 -15 4 0 -1 -11 -9 -24 -13 -19 -13 -25 -3 -29 9 -4
10 -6 1 -6 -7 -1 -10 -8 -6 -18 5 -11 3 -14 -6 -8 -10 6 -11 3 -2 -14 10 -17
9 -22 -4 -27 -12 -5 -13 -9 -4 -20 8 -10 8 -14 0 -14 -6 0 -11 -5 -11 -11 0
-5 5 -7 11 -3 8 4 8 0 0 -15 -7 -12 -9 -26 -6 -31 3 -5 1 -11 -5 -15 -7 -4 -6
-13 1 -27 9 -16 8 -19 -2 -13 -9 6 -10 3 -5 -10 4 -11 2 -22 -6 -27 -10 -6
-10 -8 1 -8 11 0 11 -3 1 -15 -7 -8 -9 -15 -4 -15 5 0 10 -18 10 -40 2 -28 -2
-38 -10 -34 -8 5 -8 3 1 -6 6 -7 9 -19 6 -26 -3 -8 0 -14 7 -14 6 0 9 -4 6 -9
-3 -5 2 -15 12 -22 15 -12 16 -12 5 2 -10 12 -10 18 -1 27 7 7 9 12 5 12 -4 0
-3 10 4 21 7 13 7 19 1 15 -6 -3 -13 -2 -16 3 -3 5 1 12 10 15 13 5 14 9 5 20
-7 8 -8 17 -3 20 5 3 7 18 4 32 -4 20 -2 25 8 19 9 -6 9 -3 0 15 -10 18 -9 21
1 15 9 -6 11 -3 6 8 -3 10 -2 17 4 17 6 0 7 5 4 10 -4 6 -1 18 7 27 11 14 11
16 -2 8 -9 -5 -8 0 4 13 11 12 16 22 12 22 -3 0 1 11 10 25 9 14 14 25 10 25
-3 0 3 16 14 35 11 20 20 42 20 50 0 8 3 15 8 15 8 0 32 48 32 66 0 6 7 15 16
18 8 3 12 10 9 16 -3 5 -1 10 4 10 6 0 11 5 11 11 0 6 10 23 23 38 12 15 33
43 47 61 14 19 35 45 47 57 12 13 18 23 12 23 -5 0 -4 6 3 14 7 8 15 13 18 11
7 -4 24 18 28 34 1 7 13 22 26 34 12 12 21 27 19 33 -4 12 26 28 35 20 2 -3 1
-13 -3 -23 -5 -10 -7 -21 -7 -25 1 -5 -3 -8 -8 -8 -6 0 -10 -9 -10 -20 0 -11
-5 -20 -11 -20 -6 0 -9 -9 -6 -20 3 -11 0 -18 -7 -17 -6 1 -11 -9 -12 -23 0
-14 -5 -24 -11 -23 -7 2 -10 -7 -7 -22 2 -14 0 -25 -6 -25 -6 0 -9 -4 -5 -9 3
-5 1 -12 -5 -16 -6 -3 -8 -17 -6 -31 3 -16 1 -22 -6 -18 -7 5 -9 -2 -6 -20 3
-14 2 -26 -2 -26 -8 0 -5 -44 5 -59 3 -6 1 -11 -5 -11 -8 0 -8 -6 0 -20 8 -14
8 -20 0 -20 -7 0 -7 -7 1 -21 8 -16 8 -20 -1 -14 -9 6 -9 2 -1 -14 9 -16 9
-21 0 -21 -7 0 -8 -7 -4 -17 10 -23 10 -31 0 -72 -6 -27 -4 -32 6 -25 12 6 12
5 0 -9 -7 -9 -10 -17 -5 -17 5 0 2 -5 -6 -10 -12 -8 -12 -10 -1 -10 10 0 11
-3 2 -13 -8 -10 -7 -17 1 -25 8 -8 7 -13 -6 -18 -13 -5 -14 -9 -5 -20 6 -8 7
-14 2 -14 -5 0 -8 -13 -5 -29 2 -16 -1 -32 -7 -35 -8 -5 -8 -13 -1 -26 7 -14
6 -23 -5 -34 -9 -9 -11 -17 -5 -21 6 -4 7 -13 2 -23 -5 -9 -7 -27 -7 -39 1
-12 -1 -20 -6 -18 -4 3 -9 0 -12 -7 -2 -7 -3 -5 -2 5 2 10 -3 17 -13 17 -13 0
-14 2 -4 9 11 6 10 11 -3 25 -10 10 -12 16 -4 16 7 0 8 4 2 12 -9 13 -14 42
-17 107 0 19 -6 36 -12 38 -13 4 -27 -24 -18 -38 3 -5 1 -9 -5 -9 -5 0 -8 -9
-6 -20 2 -11 0 -20 -4 -20 -5 0 -8 -20 -7 -44 1 -24 -2 -42 -6 -40 -5 3 -8 2
-9 -3 0 -4 -2 -18 -3 -31 -2 -13 1 -25 6 -28 5 -3 5 -11 0 -17 -5 -7 -8 -25
-7 -42 1 -16 -3 -33 -9 -37 -7 -5 -7 -8 2 -8 10 0 10 -5 1 -21 -8 -16 -8 -20
1 -14 8 5 10 -2 7 -24 -3 -20 -1 -31 6 -31 8 0 7 -3 -2 -9 -8 -5 -9 -10 -2
-12 6 -2 12 -13 13 -24 2 -11 13 -39 25 -62 12 -22 19 -44 15 -49 -4 -4 -2 -5
3 -1 6 3 17 -3 24 -15 10 -16 10 -19 -1 -13 -7 3 -5 0 4 -8 10 -8 15 -17 11
-20 -3 -4 -1 -7 5 -7 7 0 12 -7 12 -15 0 -8 5 -15 11 -15 5 0 7 -5 4 -10 -3
-6 1 -13 9 -16 9 -3 13 -10 10 -15 -3 -5 0 -9 6 -9 6 0 9 -4 6 -8 -3 -5 4 -15
15 -22 21 -16 27 -35 7 -24 -7 3 -1 -6 15 -20 15 -15 25 -31 22 -37 -4 -5 -1
-9 4 -9 6 0 11 -7 11 -16 0 -8 4 -12 10 -9 5 3 10 -3 10 -14 0 -12 5 -21 10
-21 6 0 10 -10 10 -22 0 -19 2 -20 10 -8 8 12 10 9 10 -13 0 -16 4 -26 10 -22
6 3 10 -1 10 -10 0 -8 6 -18 14 -21 14 -5 41 -60 37 -76 0 -5 4 -8 9 -8 5 0 9
-3 9 -8 -3 -17 2 -30 21 -52 11 -12 17 -27 13 -33 -3 -6 -1 -7 5 -3 7 4 12 2
12 -4 0 -6 7 -18 15 -27 8 -8 13 -19 10 -24 -4 -5 -1 -9 5 -9 6 0 9 -4 6 -8
-2 -4 4 -8 14 -8 10 0 17 3 14 7 -3 6 25 21 46 24 3 0 18 13 34 28 16 14 32
24 36 22 5 -3 15 1 23 9 8 8 18 12 21 8 4 -3 10 -2 14 3 12 17 103 56 114 49
7 -5 8 -2 3 6 -5 8 -3 11 6 8 8 -3 27 4 43 15 16 12 26 15 22 8 -7 -10 -4 -11
13 -2 12 7 26 9 31 6 6 -4 12 0 15 7 3 8 15 15 28 15 20 2 45 11 91 35 12 6
16 6 12 0 -3 -6 2 -8 14 -5 11 3 17 9 15 13 -3 5 7 7 22 6 16 -2 33 3 41 13 7
9 11 11 8 4 -4 -7 1 -11 13 -10 15 1 17 4 9 14 -9 11 -6 12 14 4 18 -7 29 -6
37 2 6 6 11 7 11 3 0 -5 11 -1 24 8 14 9 27 12 30 7 3 -5 23 -3 43 4 21 7 46
11 56 10 9 -2 15 0 11 6 -3 6 5 8 20 5 16 -3 26 0 26 7 0 7 4 6 10 -3 5 -8 10
-10 10 -4 0 6 11 10 25 9 14 -2 28 1 31 7 4 6 10 5 15 -3 6 -10 9 -10 9 -2 0
6 9 10 20 8 11 -2 20 1 20 6 0 6 8 6 20 -1 15 -8 20 -8 20 2 0 10 2 10 9 -1 7
-11 11 -10 20 5 6 11 11 13 11 7 0 -7 7 -13 16 -13 9 0 12 5 8 13 -6 9 -5 9 7
0 9 -7 20 -9 29 -3 9 5 19 5 27 -2 10 -8 13 -7 13 3 0 12 2 12 9 0 6 -9 14
-11 26 -3 22 12 57 4 49 -12 -3 -6 2 -2 10 8 9 11 16 14 16 7 0 -7 4 -9 10 -6
5 3 10 0 10 -7 0 -9 3 -9 10 2 6 10 10 11 10 3 0 -7 8 -13 18 -13 13 0 14 -2
4 -9 -8 -4 -13 -11 -13 -15 1 -3 0 -8 0 -11 -1 -3 -3 -9 -4 -15 -1 -5 -4 -11
-5 -12 -1 -2 -3 -16 -5 -33 -1 -19 -6 -29 -15 -27 -11 3 -11 0 0 -12 7 -9 8
-16 3 -16 -5 0 -9 -8 -9 -19 0 -25 20 -21 50 12 14 15 30 27 36 27 5 0 10 5
10 11 0 5 5 7 10 4 6 -3 10 1 10 9 0 9 6 15 13 13 6 -1 11 4 9 11 -1 8 2 11 8
7 5 -3 10 -1 10 4 0 6 3 10 8 10 21 -4 32 3 32 19 0 14 2 15 10 2 6 -10 10
-11 10 -2 0 6 7 12 15 12 9 0 18 7 21 15 4 8 10 12 15 9 5 -3 19 4 31 15 12
12 27 21 34 21 7 0 14 3 16 8 5 10 80 46 103 48 11 1 26 -3 34 -10 11 -8 13
-8 8 0 -4 8 3 11 23 10 17 0 30 -5 30 -11 0 -5 5 -3 10 5 9 13 10 13 10 0 0
-12 2 -12 9 -2 11 17 21 17 32 0 7 -10 9 -10 9 2 0 13 2 13 9 1 8 -13 12 -13
27 0 10 8 15 9 11 2 -5 -8 0 -11 13 -10 11 1 20 6 20 12 0 6 3 7 8 0 11 -15
64 -17 55 -2 -5 9 -3 9 8 1 21 -16 82 -18 73 -2 -6 10 -4 10 8 0 11 -9 18 -10
23 -2 3 6 12 7 18 3 17 -11 41 -10 49 2 5 6 8 5 8 -2 0 -7 5 -13 11 -13 5 0 8
4 4 9 -3 6 4 8 17 5 34 -8 62 -6 66 4 2 6 12 7 24 4 15 -4 19 -2 13 7 -6 10
-3 11 14 2 17 -10 22 -9 27 4 3 8 10 13 14 10 5 -3 11 -1 15 5 4 6 11 7 17 4
7 -5 9 -2 6 7 -4 10 1 15 12 15 10 0 16 -5 13 -10 -4 -5 -1 -6 6 -2 20 13 61
14 61 2 0 -6 5 -4 10 4 5 8 10 10 10 4 0 -14 30 -14 30 0 0 7 3 7 8 1 9 -13
32 -18 32 -7 0 4 25 8 55 7 44 0 54 2 50 14 -4 10 -2 11 8 3 13 -11 34 -11 52
0 6 4 17 3 24 -2 8 -4 27 -3 43 2 15 6 35 7 43 4 8 -3 15 -2 15 3 0 4 16 7 35
6 19 -1 35 2 35 6 0 5 11 9 24 9 14 0 28 5 32 11 4 8 9 7 15 -2 7 -11 9 -10 9
4 0 10 4 16 9 13 11 -7 71 25 71 37 0 5 4 6 10 2 5 -3 18 3 30 15 11 11 25 20
31 20 7 0 20 9 30 21 9 11 20 20 23 20 21 -3 26 0 20 11 -4 7 -3 8 5 4 6 -4
19 -2 28 6 14 11 16 11 9 -2 -4 -8 0 -6 8 4 9 11 16 16 16 10 0 -5 6 -2 13 7
7 9 14 16 17 17 29 5 102 47 110 63 6 11 14 18 18 16 14 -8 97 87 94 107 -3
11 0 16 7 12 7 -5 9 -1 5 8 -3 9 -1 16 5 16 20 0 26 3 36 16 6 7 17 14 25 16
8 2 20 8 26 13 6 6 28 24 49 40 21 17 62 53 91 82 30 29 54 49 54 45 0 -4 5 1
11 11 6 9 14 15 20 12 5 -4 9 1 9 10 0 9 5 13 10 10 6 -3 13 1 16 9 3 9 10 14
14 11 4 -3 11 2 14 11 3 8 10 12 16 9 6 -3 13 1 16 9 3 9 13 16 20 16 8 0 25
9 37 21 12 11 30 18 39 16 9 -3 19 1 22 9 3 8 11 14 19 14 7 0 31 9 53 19 21
11 42 17 46 14 5 -2 8 4 9 14 0 10 3 13 6 6 6 -17 33 -17 33 0 0 8 3 9 8 1 5
-8 12 -6 22 5 8 9 13 15 11 14 -2 -2 -10 5 -18 15 -9 10 -11 11 -7 2 7 -12 5
-13 -8 -3 -8 7 -18 10 -21 6 -4 -3 -7 -1 -7 5 0 6 -7 9 -17 5 -12 -5 -14 -3
-8 8 8 12 6 12 -8 0 -13 -10 -17 -10 -17 -1 0 7 -7 10 -15 6 -8 -3 -15 0 -15
7 0 8 -4 6 -10 -3 -8 -13 -10 -13 -10 0 0 11 -3 11 -12 2 -16 -16 -28 -15 -28
3 0 8 5 15 12 15 6 0 9 3 5 6 -3 3 8 19 24 35 16 16 26 29 22 29 -4 0 0 5 10
11 9 5 17 17 17 24 0 8 4 15 9 15 6 0 8 9 6 20 -2 11 0 18 4 15 8 -4 24 31 22
48 -1 4 4 7 10 7 5 0 8 4 5 9 -4 5 -3 11 1 13 5 1 21 30 38 63 16 33 36 65 45
72 8 7 12 13 8 13 -4 0 7 15 25 34 35 37 44 48 70 86 9 13 17 22 17 18 0 -4
19 12 42 35 23 23 46 41 50 40 4 -2 8 2 8 7 0 6 6 10 14 10 8 0 17 7 20 16 9
22 8 24 -9 18 -9 -4 -15 0 -15 7 0 11 -2 11 -8 1 -5 -7 -31 -13 -60 -14 -28
-1 -49 -5 -46 -9 2 -4 -6 -5 -18 -1 -14 3 -19 2 -14 -6 4 -7 3 -12 -3 -12 -5
0 -12 6 -14 13 -4 9 -6 9 -6 0 -1 -7 -8 -10 -16 -7 -8 4 -15 2 -15 -4 0 -5
-10 -9 -22 -8 -13 1 -26 -3 -30 -8 -12 -17 -38 -15 -48 5 -9 15 -7 19 7 20 11
0 13 3 5 6 -10 4 -10 8 0 21 11 13 11 15 -2 7 -12 -6 -12 -5 -3 5 6 7 9 19 6
26 -3 8 0 14 7 14 6 0 8 5 5 10 -3 6 -1 10 5 10 6 0 9 4 5 9 -3 5 -1 12 5 16
6 4 8 11 5 16 -4 5 -1 9 5 9 6 0 8 5 5 10 -3 6 -1 10 6 10 7 0 10 3 6 6 -3 3
6 17 19 29 14 13 26 27 27 32 1 4 6 7 10 5 4 -1 10 5 13 13 4 8 12 15 20 15 8
0 14 6 14 14 0 10 7 12 22 8 14 -3 19 -2 14 6 -4 7 -2 12 3 12 6 0 11 -5 11
-11 0 -6 7 -3 16 5 8 9 20 14 25 11 5 -4 9 0 9 7 0 9 3 9 10 -2 7 -11 10 -11
10 -2 0 9 5 10 19 2 14 -7 21 -6 24 3 3 6 6 7 6 2 1 -6 19 -10 41 -8 22 1 40
-3 40 -8 0 -6 5 -7 10 -4 7 4 6 13 -1 27 -16 30 -76 88 -83 81 -3 -4 -6 -1 -6
6 0 7 -4 9 -10 6 -5 -3 -10 1 -10 9 0 9 -7 13 -20 11 -11 -2 -20 1 -20 6 0 6
-4 7 -10 4 -5 -3 -10 -2 -10 4 0 5 -9 8 -20 6 -11 -2 -20 0 -20 5 0 5 -7 6
-17 3 -11 -4 -14 -3 -9 5 4 7 2 12 -4 12 -6 0 -8 5 -5 10 4 6 9 9 13 6 9 -5
72 61 64 68 -3 3 2 6 11 6 10 0 17 7 17 15 0 8 5 15 10 15 6 0 10 7 10 15 0 8
4 15 9 15 10 0 39 42 43 62 2 7 9 18 17 24 22 17 21 40 0 41 -11 1 -17 -2 -14
-6 4 -7 -7 -14 -45 -25 -3 -1 -11 -5 -17 -9 -7 -5 -13 -5 -13 0 0 4 -4 3 -8
-4 -4 -7 -23 -15 -42 -18 -19 -3 -37 -11 -41 -17 -4 -7 -8 -5 -11 3 -4 12 -7
12 -21 0 -14 -11 -17 -11 -17 0 0 9 -3 10 -8 3 -4 -6 -17 -10 -29 -9 -13 1
-23 -2 -23 -7 0 -5 -9 -4 -20 2 -15 8 -20 8 -20 -2 0 -9 -3 -9 -10 2 -7 11
-10 11 -10 2 0 -10 -5 -10 -20 -2 -15 8 -20 8 -20 -2 -1 -8 -6 -6 -15 5 -14
20 -10 51 6 41 5 -3 9 0 9 5 0 6 6 11 14 11 7 0 25 11 40 25 15 14 31 25 37
25 5 0 8 6 6 13 -1 6 3 11 10 10 6 -2 15 6 18 17 4 11 11 20 17 20 6 0 8 3 5
7 -4 3 2 12 13 20 11 8 17 20 14 28 -7 17 -30 20 -36 6 -1 -5 -10 -11 -18 -13
-8 -2 -17 -6 -20 -10 -3 -3 -21 -8 -40 -10 -19 -1 -41 -10 -48 -18 -8 -8 -11
-9 -7 -2 8 15 -7 16 -23 0 -9 -9 -12 -9 -12 0 0 7 -5 12 -11 12 -5 0 -7 -5 -3
-11 4 -7 1 -10 -7 -7 -8 3 -22 1 -33 -4 -14 -8 -17 -7 -10 4 6 11 5 11 -9 -1
-14 -11 -17 -11 -17 0 0 10 -2 11 -8 2 -8 -12 -29 -13 -49 0 -6 4 -15 3 -18
-3 -5 -8 -11 -7 -21 1 -11 9 -14 9 -14 -1 0 -10 -3 -10 -15 0 -12 10 -15 10
-15 -1 0 -12 -2 -11 -9 0 -5 8 -24 16 -43 17 -18 1 -33 3 -33 4 0 3 -41 11
-63 12 -12 0 -25 5 -28 10 -3 5 -12 4 -20 -3 -8 -6 -23 -9 -34 -6 -11 3 -20 0
-20 -5 0 -6 -8 -4 -17 3 -10 8 -14 9 -10 2 5 -7 1 -12 -10 -11 -28 0 -64 -10
-79 -23 -12 -9 -18 -9 -27 0 -9 10 -5 19 21 42 18 16 30 29 27 29 -3 0 0 6 7
14 7 8 16 12 21 9 4 -2 7 3 7 11 0 8 8 20 18 25 9 6 13 11 9 11 -4 0 -2 6 5
14 7 8 16 12 21 9 6 -4 11 12 8 29 0 5 4 7 11 5 7 -1 17 8 23 20 5 13 16 23
23 23 7 0 11 4 8 8 -3 5 6 20 20 35 14 15 21 27 17 27 -4 0 -3 4 2 8 12 8 49
64 50 74 0 4 8 16 17 27 9 11 14 22 11 25 -4 3 -1 6 6 6 8 0 11 7 7 15 -3 8
-2 15 2 15 5 0 19 22 33 50 13 27 28 50 32 50 5 0 5 5 2 10 -3 6 -1 10 5 10 6
0 8 5 5 10 -3 6 -1 10 5 10 7 0 10 6 7 14 -3 8 1 17 9 20 9 3 13 10 10 15 -4
5 -3 11 1 13 5 2 20 26 35 55 26 49 26 51 7 56 -10 3 -19 1 -19 -4 0 -5 0 -11
0 -14 0 -3 -16 -21 -36 -40 -20 -19 -33 -35 -30 -35 3 0 -2 -8 -11 -18 -10
-11 -21 -17 -25 -15 -4 2 -10 -6 -13 -18 -4 -11 -9 -18 -12 -15 -3 2 -15 -6
-28 -20 -12 -13 -25 -24 -29 -24 -4 0 -18 -12 -31 -26 -14 -15 -25 -24 -25
-20 0 4 -16 -9 -36 -28 -20 -20 -41 -33 -47 -29 -6 4 -8 0 -4 -10 4 -11 2 -14
-9 -10 -16 6 -18 19 -4 28 6 3 10 13 10 22 0 9 8 22 18 30 9 8 12 12 5 9 -6
-4 -14 -2 -18 4 -3 5 1 10 10 10 9 0 13 5 10 10 -3 6 -1 10 6 10 9 0 9 3 0 14
-9 10 -9 16 -1 21 6 4 9 14 6 22 -3 8 -2 12 3 9 13 -8 21 18 11 34 -9 15 9 52
22 44 4 -3 3 7 -2 21 -7 19 -7 24 2 19 8 -5 9 -2 5 9 -4 10 -1 17 5 17 9 0 9
3 0 12 -9 9 -7 17 11 37 12 13 17 21 11 18 -7 -4 -11 4 -10 22 1 16 5 27 10
24 4 -3 5 5 1 17 -4 13 -3 20 2 17 12 -7 10 23 -2 42 -6 10 -4 12 5 6 10 -6
12 -4 7 8 -4 10 -1 17 6 17 8 0 6 4 -3 10 -8 5 -10 10 -4 10 10 0 15 37 14
108 0 12 4 22 8 22 10 0 9 30 -1 47 -4 6 -2 13 5 15 17 6 19 38 2 38 -9 0 -12
5 -8 12 4 7 3 8 -4 4 -7 -4 -12 -16 -12 -26 0 -10 -5 -22 -11 -25 -6 -4 -8
-13 -5 -21 3 -7 -3 -18 -12 -23 -14 -8 -14 -11 -2 -11 13 -1 13 -2 0 -13 -8
-7 -16 -19 -18 -27 -2 -8 -8 -17 -13 -18 -5 -2 -7 -8 -3 -13 3 -5 -2 -9 -10
-9 -10 0 -13 -6 -10 -15 4 -10 -3 -18 -20 -25 -14 -5 -26 -14 -26 -20 0 -6
-13 -23 -30 -37 -16 -13 -30 -31 -30 -38 0 -7 -7 -16 -16 -19 -8 -3 -12 -10
-9 -16 4 -6 -1 -7 -11 -3 -12 4 -15 3 -10 -5 5 -8 1 -10 -10 -5 -11 4 -13 8
-6 11 7 2 10 8 6 13 -3 5 -1 9 5 9 5 0 8 8 7 18 -2 9 1 19 5 22 5 4 10 23 11
43 2 20 6 37 10 37 4 0 5 16 4 35 -2 19 0 32 5 29 5 -3 6 -11 3 -17 -4 -7 -3
-8 2 -4 4 4 9 22 10 40 4 96 8 116 18 110 6 -4 5 1 -3 10 -10 13 -10 17 -1 17
10 0 10 3 1 14 -9 11 -9 15 1 18 10 4 10 9 -2 23 -11 14 -12 17 -1 10 11 -6
13 -1 9 24 -3 18 0 31 6 31 6 0 4 5 -4 10 -8 5 -10 10 -5 10 10 0 11 21 4 212
-2 37 -6 65 -9 63 -4 -2 -7 2 -7 10 0 8 4 12 9 9 4 -3 8 0 8 6 0 6 -8 10 -17
8 -10 -2 -17 -11 -17 -21 1 -9 -2 -17 -8 -17 -5 0 -6 -5 -3 -10 4 -6 1 -18 -7
-27 -11 -14 -11 -16 2 -8 12 7 13 6 4 -6 -6 -8 -11 -26 -10 -41 1 -19 -3 -28
-14 -28 -12 0 -12 -2 -1 -9 8 -5 9 -11 3 -15 -6 -3 -10 -14 -10 -24 1 -25 -5
-46 -17 -54 -6 -5 -5 -8 3 -8 10 0 9 -4 -2 -16 -9 -8 -14 -19 -11 -24 3 -5 1
-11 -5 -15 -6 -3 -11 5 -11 19 -1 24 -3 35 -9 54 -6 20 -4 48 5 54 6 5 5 8 -3
8 -7 0 -10 5 -7 10 3 6 1 10 -4 10 -6 0 -11 5 -11 11 0 5 6 7 13 3 8 -6 8 -3
-1 9 -8 9 -11 21 -7 27 3 5 2 10 -3 10 -6 0 -8 9 -5 20 3 13 0 20 -8 20 -11 0
-11 2 1 10 13 9 13 10 0 10 -13 0 -13 1 0 10 13 8 12 10 -4 10 -15 0 -16 3 -6
15 10 12 10 15 0 15 -7 0 -10 8 -7 20 3 10 0 21 -6 23 -5 1 -12 13 -14 26 -2
16 1 20 9 15 7 -4 5 2 -5 13 -9 11 -14 23 -10 26 3 4 1 7 -6 7 -7 0 -9 5 -6
10 3 6 2 10 -4 10 -5 0 -8 9 -6 20 3 14 -2 20 -13 20 -15 0 -15 2 -2 10 12 7
12 10 1 10 -7 0 -11 6 -8 14 3 8 3 16 -1 18 -4 2 -17 22 -29 46 -12 24 -17 40
-10 37 7 -4 1 3 -13 15 -14 12 -19 19 -12 15 6 -3 12 -1 12 4 0 6 -4 11 -10
11 -5 0 -10 8 -10 19 0 10 -7 24 -15 31 -9 7 -14 19 -11 27 3 7 1 13 -4 13 -6
0 -10 7 -10 15 0 8 -5 15 -11 15 -5 0 -8 4 -4 9 3 5 1 12 -4 16 -6 3 -7 13 -4
22 5 12 3 14 -7 8 -8 -5 -11 -3 -8 6 3 8 -2 23 -11 33 -12 14 -12 17 -2 11 9
-5 5 5 -7 23 -13 17 -24 44 -25 61 -1 16 -5 27 -9 24 -5 -2 -8 7 -8 21 0 14
-5 26 -11 26 -7 0 -9 9 -6 21 4 14 1 19 -7 16 -6 -3 -12 3 -13 12 -2 40 -10
78 -22 99 -6 12 -9 22 -5 22 3 0 0 8 -7 17 -11 13 -11 15 -1 9 14 -8 13 -5
-17 53 -8 14 -8 21 -2 16 6 -3 11 -1 11 4 0 6 -4 11 -10 11 -5 0 -7 7 -4 15 4
8 1 22 -6 30 -9 11 -9 15 -1 15 7 0 9 5 6 10 -4 6 -12 7 -18 3 -7 -4 -6 0 2
10 11 14 11 20 0 34 -12 14 -12 16 0 8 11 -6 13 -4 8 7 -3 9 -1 20 5 26 6 6 6
12 -3 17 -8 6 -10 4 -4 -5 5 -8 4 -11 -3 -6 -6 4 -9 13 -6 21 4 8 9 13 13 11
3 -2 7 9 8 25 1 16 -2 29 -8 29 -6 0 -7 5 -3 12 4 7 3 8 -4 4 -7 -4 -12 -14
-12 -22 0 -8 -7 -14 -15 -14 -9 0 -12 -6 -9 -15 4 -8 -1 -17 -10 -21 -9 -3
-14 -10 -11 -14 3 -5 -1 -15 -9 -23 -8 -8 -12 -17 -9 -21 4 -3 1 -6 -6 -6 -7
0 -10 -4 -7 -9 3 -5 -1 -14 -8 -20 -8 -7 -13 -23 -11 -37 2 -20 0 -22 -12 -13
-10 9 -12 9 -8 -3 3 -8 0 -28 -6 -44 -7 -16 -13 -36 -14 -44 -1 -8 -5 -26 -10
-39 -5 -18 -4 -22 6 -17 8 4 6 1 -4 -7 -13 -11 -15 -17 -7 -22 9 -6 9 -10 -1
-15 -10 -7 -10 -12 2 -26 12 -15 12 -17 0 -9 -11 6 -13 4 -8 -8 3 -10 3 -17
-1 -17 -5 0 -8 -15 -8 -34 0 -20 4 -32 10 -29 5 4 6 1 2 -6 -11 -17 -13 -100
-2 -94 4 3 5 -5 1 -17 -6 -17 -4 -21 6 -14 12 6 12 5 0 -9 -7 -9 -9 -17 -3
-17 5 0 10 -10 10 -22 0 -31 5 -52 15 -59 5 -3 1 -9 -8 -12 -9 -4 -14 -3 -12
1 6 10 -40 52 -49 44 -4 -4 -4 1 -1 10 3 10 3 17 -1 16 -14 -3 -67 27 -89 49
-12 13 -25 24 -28 24 -11 0 -65 35 -65 42 0 5 -4 5 -10 2 -5 -3 -10 -1 -10 5
0 7 -7 10 -15 6 -8 -3 -15 -1 -15 5 0 6 -7 9 -14 6 -10 -4 -13 -1 -10 8 4 9
-6 15 -28 20 -18 4 -41 14 -50 23 -10 8 -18 11 -18 6 0 -5 -4 -4 -8 1 -13 18
-56 50 -47 36 5 -8 -6 -5 -23 8 -18 12 -36 19 -42 16 -5 -3 -10 -2 -10 4 0 6
-11 13 -25 17 -14 3 -25 10 -25 14 0 4 -11 6 -25 5 -14 -2 -23 2 -22 8 1 6 -8
13 -20 15 -13 2 -23 8 -23 13 0 5 -9 9 -21 9 -11 0 -17 5 -14 10 3 6 -3 10
-14 10 -12 0 -21 5 -21 10 0 6 -7 10 -15 10 -8 0 -15 5 -15 10 0 6 -10 10 -22
10 -19 0 -20 2 -8 10 12 8 11 10 -7 10 -13 0 -23 5 -23 10 0 6 -7 10 -15 10
-8 0 -15 5 -15 10 0 6 -7 10 -15 10 -8 0 -15 4 -15 9 0 5 -13 14 -30 21 -16 7
-30 16 -30 21 0 5 -6 9 -13 9 -7 0 -24 10 -37 23 -14 12 -28 21 -32 20 -4 -2
-10 6 -13 17 -4 11 -11 20 -16 20 -5 0 -34 25 -64 55 -54 56 -85 73 -66 36z
m2444 -3192 c4 -16 3 -18 -9 -8 -16 13 -19 29 -5 29 5 0 11 -9 14 -21z m-4229
-291 c-1 -18 -2 -33 -4 -33 -1 0 -4 -16 -7 -35 -2 -19 -10 -38 -16 -42 -9 -6
-9 -8 1 -8 16 0 11 -23 -6 -30 -8 -3 -12 -8 -10 -11 2 -2 -7 -15 -19 -28 -12
-13 -20 -28 -17 -33 3 -4 -3 -8 -12 -8 -10 0 -15 -3 -11 -6 3 -3 -11 -21 -31
-40 -20 -19 -33 -34 -28 -34 5 0 -1 -11 -14 -25 -13 -14 -19 -25 -14 -25 5 0
1 -5 -8 -11 -10 -5 -18 -17 -18 -24 0 -8 -5 -15 -11 -15 -5 0 -7 -5 -3 -12 4
-6 3 -8 -4 -4 -6 3 -15 -1 -20 -10 -7 -13 -9 -8 -8 18 0 20 4 34 8 31 5 -2 8
6 8 19 0 45 4 68 12 68 4 0 7 3 6 8 -3 13 14 42 22 37 4 -3 11 7 14 20 4 15
11 23 18 19 6 -4 9 -1 6 6 -2 8 8 26 24 40 15 15 28 31 28 36 0 5 12 20 25 33
14 13 25 29 25 36 0 7 7 18 15 25 9 7 14 15 11 17 -2 3 33 51 40 53 0 0 -1
-15 -2 -32z m-827 -1307 c0 -11 -5 -18 -9 -15 -4 3 -5 11 -1 19 7 21 12 19 10
-4z"/>
<path d="M411 1127 c2 -1 13 -9 24 -17 19 -14 19 -14 6 3 -7 9 -18 17 -24 17
-6 0 -8 -1 -6 -3z"/>
</g>
</svg>
